<mxfile host="app.diagrams.net" modified="2020-12-15T02:19:53.121Z" agent="5.0 (Macintosh; Intel Mac OS X 10_15_7) AppleWebKit/537.36 (KHTML, like Gecko) Chrome/87.0.4280.88 Safari/537.36" etag="Mva5BHo6lztY4UAx3IQs" version="14.0.0" type="github">
  <diagram id="wvMvGdraGng6jNst5-NM" name="Page-1">
    <mxGraphModel dx="1298" dy="799" grid="0" gridSize="10" guides="1" tooltips="1" connect="1" arrows="1" fold="1" page="1" pageScale="1" pageWidth="827" pageHeight="1169" background="#B3B3B3" math="0" shadow="0">
      <root>
        <mxCell id="0" />
        <mxCell id="1" parent="0" />
        <mxCell id="Y4jqcFmsGdj2RUDltD1J-21" value="" style="rounded=1;whiteSpace=wrap;html=1;align=left;strokeColor=#82b366;fillColor=#0066CC;" parent="1" vertex="1">
          <mxGeometry x="105" y="201" width="618" height="280" as="geometry" />
        </mxCell>
        <mxCell id="Y4jqcFmsGdj2RUDltD1J-18" value="" style="rounded=1;whiteSpace=wrap;html=1;align=left;labelPosition=left;verticalLabelPosition=middle;verticalAlign=middle;" parent="1" vertex="1">
          <mxGeometry x="240" y="384.5" width="465" height="71" as="geometry" />
        </mxCell>
        <mxCell id="Y4jqcFmsGdj2RUDltD1J-8" value="" style="rounded=1;whiteSpace=wrap;html=1;align=left;labelPosition=left;verticalLabelPosition=middle;verticalAlign=middle;" parent="1" vertex="1">
          <mxGeometry x="240" y="225" width="465" height="71" as="geometry" />
        </mxCell>
        <mxCell id="Y4jqcFmsGdj2RUDltD1J-1" value="formatter" style="rounded=1;whiteSpace=wrap;html=1;fillColor=#66B2FF;" parent="1" vertex="1">
          <mxGeometry x="264" y="241" width="80" height="39" as="geometry" />
        </mxCell>
        <mxCell id="Y4jqcFmsGdj2RUDltD1J-2" value="&lt;span&gt;processor 1&lt;/span&gt;" style="rounded=1;whiteSpace=wrap;html=1;fillColor=#A680B8;" parent="1" vertex="1">
          <mxGeometry x="374" y="241" width="80" height="39" as="geometry" />
        </mxCell>
        <mxCell id="Y4jqcFmsGdj2RUDltD1J-3" value="&lt;span&gt;processor N&lt;/span&gt;" style="rounded=1;whiteSpace=wrap;html=1;fillColor=#A680B8;" parent="1" vertex="1">
          <mxGeometry x="504" y="242" width="77" height="39" as="geometry" />
        </mxCell>
        <mxCell id="Y4jqcFmsGdj2RUDltD1J-4" value="gnmi collector" style="rounded=1;whiteSpace=wrap;html=1;strokeColor=#6c8ebf;fillColor=#99CCFF;" parent="1" vertex="1">
          <mxGeometry x="130" y="321" width="77" height="40" as="geometry" />
        </mxCell>
        <mxCell id="Y4jqcFmsGdj2RUDltD1J-5" value="formatter" style="rounded=1;whiteSpace=wrap;html=1;fillColor=#66B2FF;" parent="1" vertex="1">
          <mxGeometry x="264" y="400" width="80" height="40" as="geometry" />
        </mxCell>
        <mxCell id="Y4jqcFmsGdj2RUDltD1J-6" value="&lt;span&gt;processor 1&lt;/span&gt;" style="rounded=1;whiteSpace=wrap;html=1;fillColor=#A680B8;" parent="1" vertex="1">
          <mxGeometry x="374" y="401" width="80" height="40" as="geometry" />
        </mxCell>
        <mxCell id="Y4jqcFmsGdj2RUDltD1J-7" value="&lt;span&gt;processor M&lt;/span&gt;" style="rounded=1;whiteSpace=wrap;html=1;fillColor=#A680B8;" parent="1" vertex="1">
          <mxGeometry x="504" y="401" width="77" height="38" as="geometry" />
        </mxCell>
        <mxCell id="Y4jqcFmsGdj2RUDltD1J-10" value="" style="endArrow=classic;html=1;exitX=1;exitY=0.5;exitDx=0;exitDy=0;entryX=0;entryY=0.5;entryDx=0;entryDy=0;strokeColor=#0000FF;" parent="1" source="Y4jqcFmsGdj2RUDltD1J-4" target="Y4jqcFmsGdj2RUDltD1J-1" edge="1">
          <mxGeometry width="50" height="50" relative="1" as="geometry">
            <mxPoint x="411" y="428" as="sourcePoint" />
            <mxPoint x="461" y="378" as="targetPoint" />
          </mxGeometry>
        </mxCell>
        <mxCell id="Y4jqcFmsGdj2RUDltD1J-11" value="" style="endArrow=classic;html=1;exitX=1;exitY=0.5;exitDx=0;exitDy=0;entryX=0;entryY=0.5;entryDx=0;entryDy=0;strokeColor=#0000FF;" parent="1" source="Y4jqcFmsGdj2RUDltD1J-4" target="Y4jqcFmsGdj2RUDltD1J-5" edge="1">
          <mxGeometry width="50" height="50" relative="1" as="geometry">
            <mxPoint x="232" y="342" as="sourcePoint" />
            <mxPoint x="280" y="268" as="targetPoint" />
          </mxGeometry>
        </mxCell>
        <mxCell id="Y4jqcFmsGdj2RUDltD1J-12" value="" style="endArrow=classic;html=1;exitX=1;exitY=0.5;exitDx=0;exitDy=0;entryX=0;entryY=0.5;entryDx=0;entryDy=0;strokeColor=#0000FF;" parent="1" source="Y4jqcFmsGdj2RUDltD1J-1" target="Y4jqcFmsGdj2RUDltD1J-2" edge="1">
          <mxGeometry width="50" height="50" relative="1" as="geometry">
            <mxPoint x="232" y="351" as="sourcePoint" />
            <mxPoint x="274" y="270.5" as="targetPoint" />
          </mxGeometry>
        </mxCell>
        <mxCell id="Y4jqcFmsGdj2RUDltD1J-13" value="" style="endArrow=classic;html=1;exitX=1;exitY=0.5;exitDx=0;exitDy=0;entryX=0;entryY=0.5;entryDx=0;entryDy=0;strokeColor=#0000FF;" parent="1" source="Y4jqcFmsGdj2RUDltD1J-5" target="Y4jqcFmsGdj2RUDltD1J-6" edge="1">
          <mxGeometry width="50" height="50" relative="1" as="geometry">
            <mxPoint x="354" y="270.5" as="sourcePoint" />
            <mxPoint x="394" y="270.5" as="targetPoint" />
          </mxGeometry>
        </mxCell>
        <mxCell id="Y4jqcFmsGdj2RUDltD1J-14" value="" style="endArrow=classic;html=1;exitX=1;exitY=0.5;exitDx=0;exitDy=0;strokeColor=#0000FF;dashed=1;" parent="1" source="Y4jqcFmsGdj2RUDltD1J-6" target="Y4jqcFmsGdj2RUDltD1J-7" edge="1">
          <mxGeometry width="50" height="50" relative="1" as="geometry">
            <mxPoint x="354" y="431" as="sourcePoint" />
            <mxPoint x="394" y="431" as="targetPoint" />
          </mxGeometry>
        </mxCell>
        <mxCell id="Y4jqcFmsGdj2RUDltD1J-15" value="" style="endArrow=classic;html=1;exitX=1;exitY=0.5;exitDx=0;exitDy=0;strokeColor=#0000FF;dashed=1;" parent="1" source="Y4jqcFmsGdj2RUDltD1J-2" edge="1">
          <mxGeometry width="50" height="50" relative="1" as="geometry">
            <mxPoint x="364" y="441" as="sourcePoint" />
            <mxPoint x="503" y="261" as="targetPoint" />
          </mxGeometry>
        </mxCell>
        <mxCell id="Y4jqcFmsGdj2RUDltD1J-19" value="" style="endArrow=classic;html=1;exitX=1;exitY=0.5;exitDx=0;exitDy=0;strokeColor=#0000FF;entryX=0;entryY=0.5;entryDx=0;entryDy=0;" parent="1" source="Y4jqcFmsGdj2RUDltD1J-3" target="Y4jqcFmsGdj2RUDltD1J-26" edge="1">
          <mxGeometry width="50" height="50" relative="1" as="geometry">
            <mxPoint x="191" y="351" as="sourcePoint" />
            <mxPoint x="704" y="262" as="targetPoint" />
          </mxGeometry>
        </mxCell>
        <mxCell id="Y4jqcFmsGdj2RUDltD1J-20" value="" style="endArrow=classic;html=1;exitX=1;exitY=0.5;exitDx=0;exitDy=0;strokeColor=#0000FF;entryX=0;entryY=0.5;entryDx=0;entryDy=0;" parent="1" source="Y4jqcFmsGdj2RUDltD1J-7" target="Y4jqcFmsGdj2RUDltD1J-27" edge="1">
          <mxGeometry width="50" height="50" relative="1" as="geometry">
            <mxPoint x="591" y="271.5" as="sourcePoint" />
            <mxPoint x="706" y="420" as="targetPoint" />
          </mxGeometry>
        </mxCell>
        <mxCell id="Y4jqcFmsGdj2RUDltD1J-22" value="" style="endArrow=classic;html=1;entryX=0;entryY=0.5;entryDx=0;entryDy=0;strokeColor=#0000FF;" parent="1" target="Y4jqcFmsGdj2RUDltD1J-4" edge="1">
          <mxGeometry width="50" height="50" relative="1" as="geometry">
            <mxPoint x="64" y="341" as="sourcePoint" />
            <mxPoint x="274" y="270.5" as="targetPoint" />
          </mxGeometry>
        </mxCell>
        <mxCell id="Y4jqcFmsGdj2RUDltD1J-23" value="output 1" style="text;html=1;strokeColor=none;fillColor=none;align=center;verticalAlign=middle;whiteSpace=wrap;rounded=0;" parent="1" vertex="1">
          <mxGeometry x="240" y="205" width="50" height="20" as="geometry" />
        </mxCell>
        <mxCell id="Y4jqcFmsGdj2RUDltD1J-24" value="output 2" style="text;html=1;strokeColor=none;fillColor=none;align=center;verticalAlign=middle;whiteSpace=wrap;rounded=0;" parent="1" vertex="1">
          <mxGeometry x="248" y="358" width="50" height="20" as="geometry" />
        </mxCell>
        <mxCell id="Y4jqcFmsGdj2RUDltD1J-25" value="&lt;font color=&quot;#ffffff&quot;&gt;gNMI Subscribe Response&lt;/font&gt;" style="text;html=1;strokeColor=none;fillColor=none;align=center;verticalAlign=middle;whiteSpace=wrap;rounded=0;" parent="1" vertex="1">
          <mxGeometry x="10" y="311" width="102" height="20" as="geometry" />
        </mxCell>
        <mxCell id="Y4jqcFmsGdj2RUDltD1J-26" value="writer" style="rounded=1;whiteSpace=wrap;html=1;fillColor=#66B2FF;" parent="1" vertex="1">
          <mxGeometry x="605" y="242" width="80" height="39" as="geometry" />
        </mxCell>
        <mxCell id="Y4jqcFmsGdj2RUDltD1J-27" value="writer" style="rounded=1;whiteSpace=wrap;html=1;fillColor=#66B2FF;" parent="1" vertex="1">
          <mxGeometry x="605" y="401" width="80" height="39" as="geometry" />
        </mxCell>
        <mxCell id="Y4jqcFmsGdj2RUDltD1J-28" value="" style="endArrow=classic;html=1;exitX=1;exitY=0.5;exitDx=0;exitDy=0;strokeColor=#0000FF;" parent="1" source="Y4jqcFmsGdj2RUDltD1J-26" edge="1">
          <mxGeometry width="50" height="50" relative="1" as="geometry">
            <mxPoint x="591" y="271.5" as="sourcePoint" />
            <mxPoint x="760" y="262" as="targetPoint" />
          </mxGeometry>
        </mxCell>
        <mxCell id="Y4jqcFmsGdj2RUDltD1J-29" value="" style="endArrow=classic;html=1;exitX=1;exitY=0.5;exitDx=0;exitDy=0;strokeColor=#0000FF;" parent="1" source="Y4jqcFmsGdj2RUDltD1J-27" edge="1">
          <mxGeometry width="50" height="50" relative="1" as="geometry">
            <mxPoint x="695" y="271.5" as="sourcePoint" />
            <mxPoint x="760" y="421" as="targetPoint" />
          </mxGeometry>
        </mxCell>
      </root>
    </mxGraphModel>
  </diagram>
</mxfile>
